# xmcd
# 
# Track frame offsets:
#     150
#     17636
#     35767
#     48098
#     62995
#     75811
#     90414
#     103353
#     119470
#     141500
# 
# Disc length: 2059
# 
# Revision: 0
# Processed by: cddbd v1.5.2PL0 Copyright (c) Steve Scherf et al.
# Submitted via: fre:ac v1.0.31
# 
DISCID=8108090a
DTITLE=Julma H and Sairas T - Kuollu Kulma
DYEAR=2018
DGENRE=Rap
TTITLE0=Dokumentti
TTITLE1=Jos et sä juokse
TTITLE2=Fuck sköö
TTITLE3=Karkkikauppa
TTITLE4=Venannu liian kaua
TTITLE5=Mä vaan teen mua
TTITLE6=Sirkusapina
TTITLE7=Raja
TTITLE8=Päästävä
TTITLE9=Viimeinen ateria
EXTD=
EXTT0=
EXTT1=
EXTT2=
EXTT3=
EXTT4=
EXTT5=
EXTT6=
EXTT7=
EXTT8=
EXTT9=
PLAYORDER=
